<svg xmlns="http://www.w3.org/2000/svg" xmlns:xlink="http://www.w3.org/1999/xlink" viewBox="0 0 105.04 106.37"><defs><style>.cls-1{fill:none;}.cls-2{fill:#64bed7;}.cls-3{fill:#8bcee1;}.cls-4{clip-path:url(#clip-path);}.cls-5{fill:#3d94b4;}.cls-6{fill:#fff;}</style><clipPath id="clip-path"><path id="SVGID" class="cls-1" d="M70,11.65a41.9,41.9,0,0,0-58,0,38.92,38.92,0,0,0,0,56.23L41,96,70,67.88A38.92,38.92,0,0,0,70,11.65Z"/></clipPath></defs><title>Asset 2</title><g id="Layer_2" data-name="Layer 2"><g id="Layer_1-2" data-name="Layer 1"><path class="cls-2" d="M70,11.65a41.9,41.9,0,0,0-58,0,38.92,38.92,0,0,0,0,56.23L41,96,70,67.88A38.92,38.92,0,0,0,70,11.65Z"/><path class="cls-3" d="M41,0A41.52,41.52,0,0,0,12,11.65a38.92,38.92,0,0,0,0,56.23L41,96Z"/><g class="cls-4"><path class="cls-5" d="M51.75,23.86s-9.54-3.89-18-.69A18.46,18.46,0,0,0,25.16,31L35.5,41.3c-3.86.64-6.77,1.93-7.43,3.81-1.4,4-3.07,12.1-3.07,12.1l49.16,49.16L105,77.15Z"/></g><path class="cls-6" d="M25.16,31c.05-7.82,7.44-11.2,14.26-11.2,7.39,0,15.42,3,15.42,11.78,0,9.4-7.08,11.19-14.84,11.19-3.07,0-8,.79-8,4.81v3.17h23v6.49H25V47.49c0-8.5,7.71-11,15-11,2.8,0,7.92-.48,7.92-4.76,0-4-3.64-5.91-8.4-5.91-3.64,0-7.39,1.85-7.44,5.18Z"/></g></g></svg>