<svg xmlns="http://www.w3.org/2000/svg" xmlns:xlink="http://www.w3.org/1999/xlink" viewBox="0 0 106.92 105.14"><defs><style>.cls-1{fill:none;}.cls-2{fill:#64bed7;}.cls-3{fill:#8bcee1;}.cls-4{clip-path:url(#clip-path);}.cls-5{fill:#3d94b4;}.cls-6{fill:#fff;}</style><clipPath id="clip-path"><path id="SVGID" class="cls-1" d="M70,11.65a41.9,41.9,0,0,0-58,0,38.92,38.92,0,0,0,0,56.23L41,96,70,67.88A38.92,38.92,0,0,0,70,11.65Z"/></clipPath></defs><title>Asset 3</title><g id="Layer_2" data-name="Layer 2"><g id="Layer_1-2" data-name="Layer 1"><path class="cls-2" d="M70,11.65a41.9,41.9,0,0,0-58,0,38.92,38.92,0,0,0,0,56.23L41,96,70,67.88A38.92,38.92,0,0,0,70,11.65Z"/><path class="cls-3" d="M41,0A41.52,41.52,0,0,0,12,11.65a38.92,38.92,0,0,0,0,56.23L41,96Z"/><g class="cls-4"><path class="cls-5" d="M52.38,23.82S50.33,22,40.28,22a15.69,15.69,0,0,0-14,8.56l9.76,9.76-.75.78,12,12c-1.85,1.93-6.2,1.83-6.2,1.83L32.6,46.39,28.23,53.3l51.84,51.84,26.85-26.77Z"/></g><path class="cls-6" d="M35.34,41.1V35.4h5.34c3.75,0,7.71-1,7.76-4.43,0-2.12-1.69-4.91-7.6-4.91-3.28,0-7.71,1.16-7.71,4.54h-7c0-8,7.93-10.88,14.74-10.88,7,0,14.47,3.38,14.52,11.25a7.78,7.78,0,0,1-5.12,7.28,8.79,8.79,0,0,1,6,7.76c0,9-8.5,11.73-15.63,11.73s-15-3-15.1-11.35h7c0,3.8,5.12,5.12,8.13,5.12C44.27,51.51,49,50,49,46.07c0-2.22-1.22-5-7.87-5Z"/></g></g></svg>