<svg xmlns="http://www.w3.org/2000/svg" xmlns:xlink="http://www.w3.org/1999/xlink" viewBox="0 0 82 85"><defs><style>.cls-1{fill:none;}.cls-2{clip-path:url(#clip-path);}.cls-3{fill:#64bed7;}.cls-4{fill:#8bcee1;}.cls-5{fill:#3d94b4;}.cls-6{fill:#fff;}</style><clipPath id="clip-path"><circle id="SVGID" class="cls-1" cx="41" cy="41" r="41"/></clipPath></defs><title>Asset 6</title><g id="Layer_2" data-name="Layer 2"><g id="Layer_1-2" data-name="Layer 1"><g class="cls-2"><circle class="cls-3" cx="41" cy="41" r="41"/><path class="cls-4" d="M0,41A41,41,0,0,0,41,82V0A41,41,0,0,0,0,41Z"/><path class="cls-5" d="M54,85,37.5,66l.26-4-2.67-2.5c-.34-.41-.06-.64.31-1.28A1,1,0,0,1,36.6,58c.06.06,1.23.55,1.3.62l.31-6.29-.3,0A17.3,17.3,0,0,1,41,18L80,63"/><path class="cls-6" d="M37.76,62l-.26,4h7.08l-.5-15a13.75,13.75,0,0,1-2.89.28A13.37,13.37,0,0,1,38.28,51l-.38,7.67c-.07-.07-1.24-.56-1.3-.62a1,1,0,0,0-1.2.18c-.37.64-.65.87-.31,1.28"/><path class="cls-6" d="M58.27,36.3c0-.22,0-.44,0-.66V35A17.29,17.29,0,1,0,41,52.61a16.86,16.86,0,0,0,3-.26,17.65,17.65,0,0,0,2.53-.63l.62-.22.61-.24A17.29,17.29,0,0,0,58.27,36.3Z"/></g></g></g></svg>