<svg xmlns="http://www.w3.org/2000/svg" xmlns:xlink="http://www.w3.org/1999/xlink" viewBox="0 0 109.8 108.76"><defs><style>.cls-1{fill:none;}.cls-2{fill:#b1deeb;}.cls-3{fill:#64bed7;}.cls-4{fill:#8bcee1;}.cls-5{clip-path:url(#clip-path);}.cls-6{fill:#3d94b4;}.cls-7{fill:#fff;}</style><clipPath id="clip-path"><path id="SVGID" class="cls-1" d="M70,12.65a41.9,41.9,0,0,0-58,0,38.92,38.92,0,0,0,0,56.23L41,97,70,68.88A38.92,38.92,0,0,0,70,12.65Z"/></clipPath></defs><title>Asset 1</title><g id="Layer_2" data-name="Layer 2"><g id="Layer_1-2" data-name="Layer 1"><path class="cls-2" d="M70,11.65a41.9,41.9,0,0,0-58,0,38.92,38.92,0,0,0,0,56.23L41,96,70,67.88A38.92,38.92,0,0,0,70,11.65Z"/><path class="cls-3" d="M70,12.65a41.9,41.9,0,0,0-58,0,38.92,38.92,0,0,0,0,56.23L41,97,70,68.88A38.92,38.92,0,0,0,70,12.65Z"/><path class="cls-4" d="M41,1A41.52,41.52,0,0,0,12,12.65a38.92,38.92,0,0,0,0,56.23L41,97Z"/><g class="cls-5"><polygon class="cls-6" points="44.95 21.25 32.28 27.58 40.74 36.04 39.55 53.91 32.49 58.21 83.04 108.76 109.8 83.69 44.95 21.25"/></g><path class="cls-7" d="M32.22,52.3h5.54V27.58H32V21.24H44.68V52.3H49.8v5.91H32.22Z"/></g></g></svg>