<svg xmlns="http://www.w3.org/2000/svg" xmlns:xlink="http://www.w3.org/1999/xlink" viewBox="0 0 83 85"><defs><style>.cls-1{fill:none;}.cls-2{clip-path:url(#clip-path);}.cls-3{fill:#64bed7;}.cls-4{fill:#8bcee1;}.cls-5{fill:#3d94b4;}.cls-6{fill:#fff;}</style><clipPath id="clip-path"><circle class="cls-1" cx="41" cy="41" r="41"/></clipPath></defs><title>Asset 4</title><g id="Layer_2" data-name="Layer 2"><g id="Layer_1-2" data-name="Layer 1"><g class="cls-2"><circle class="cls-3" cx="41" cy="41" r="41"/><path class="cls-4" d="M0,41A41,41,0,0,0,41,82V0A41,41,0,0,0,0,41Z"/><path class="cls-5" d="M61,85,37.85,61V54a22.37,22.37,0,0,1-7.06-2V46.22a15.45,15.45,0,0,0,8.55,2.83,6.13,6.13,0,0,0,3.81-1.11,3.42,3.42,0,0,0,1.47-2.88,2.81,2.81,0,0,0-1.06-2.32,10.25,10.25,0,0,0-2.64-1.47c-1.06-.41-2.21-.82-3.46-1.22A15.3,15.3,0,0,1,34,38.46a8.48,8.48,0,0,1-2.64-2.56,7.38,7.38,0,0,1-1.06-4.18,7.73,7.73,0,0,1,2-5.4,10.18,10.18,0,0,1,5.5-3V16h5.33v7a19.72,19.72,0,0,1,3.12.56,19,19,0,0,1,3.16,1.12L83,61"/><path class="cls-6" d="M37.85,54a22.37,22.37,0,0,1-7.06-2V46.22a15.45,15.45,0,0,0,8.55,2.83,6.13,6.13,0,0,0,3.81-1.11,3.42,3.42,0,0,0,1.47-2.88,2.81,2.81,0,0,0-1.06-2.32,10.25,10.25,0,0,0-2.64-1.47c-1.06-.41-2.21-.82-3.46-1.22A15.3,15.3,0,0,1,34,38.46a8.48,8.48,0,0,1-2.64-2.56,7.38,7.38,0,0,1-1.06-4.18,7.73,7.73,0,0,1,2-5.4,10.18,10.18,0,0,1,5.5-3V16h5.33v7a19.72,19.72,0,0,1,3.12.56,19,19,0,0,1,3.16,1.12v5.62a14.72,14.72,0,0,0-7.77-2.35,6.11,6.11,0,0,0-3.67,1,3.12,3.12,0,0,0-1.42,2.68,2.58,2.58,0,0,0,1.06,2.19A10.5,10.5,0,0,0,40.3,35.2c1.05.4,2.2.81,3.45,1.22a15.51,15.51,0,0,1,3.46,1.64,8.75,8.75,0,0,1,2.64,2.64,7.76,7.76,0,0,1,1,4.27,8,8,0,0,1-2.08,5.61,10.57,10.57,0,0,1-5.64,3.12V61H37.85Z"/></g></g></g></svg>