<svg xmlns="http://www.w3.org/2000/svg" viewBox="0 0 148.82 148.82"><defs><style>.cls-1{isolation:isolate;}.cls-2{fill:#e7cc98;}.cls-3{opacity:0.3;}.cls-4{fill:#fbb03b;}.cls-5{fill:#f7931e;}.cls-6{fill:#f2f2f2;}.cls-7,.cls-8{fill:#e6e6e6;}.cls-8{mix-blend-mode:multiply;}.cls-9{fill:#e0bc21;}.cls-10{fill:#fcc221;}.cls-11{fill:#ffcb00;}.cls-12{fill:#ccc;}</style></defs><title>Asset 3</title><g class="cls-1"><g id="Layer_2" data-name="Layer 2"><g id="Objects"><rect class="cls-2" width="148.82" height="148.82"/><polygon class="cls-3" points="92.97 24.54 148.72 80.29 148.78 148.67 76.14 148.82 51.89 124.2 92.97 24.54"/><rect class="cls-4" x="51.81" y="45.51" width="45.2" height="78.78"/><polygon class="cls-5" points="92.95 32.63 55.87 32.63 51.81 45.51 97.01 45.51 92.95 32.63"/><rect class="cls-4" x="55.87" y="24.54" width="37.1" height="8.09"/><rect class="cls-6" x="55.87" y="24.54" width="37.1" height="2.13"/><rect class="cls-7" x="51.81" y="101.26" width="45.2" height="13.52"/><path class="cls-5" d="M83.4,110.85c-.62-1.23-1.81-2-2.52-3.23a1.81,1.81,0,0,0-.22-.41l0-.08h0s0-.06-.06-.08c-.31-.36-.76.09-.6.46a1.83,1.83,0,0,0,.15.25c.23.71-.2,2.65-.8,1.53-.42-.78-.71-1.61-1.15-2.38a.39.39,0,0,0-.61-.07,2.8,2.8,0,0,0-.37.65.4.4,0,0,0-.53-.16,3.49,3.49,0,0,0-.85.54c-.08-.26-.15-.52-.22-.78.71-1.16,1.17-2.38.75-3.23a.39.39,0,0,0-.43-.18c-.76.14-1.12,1.35-1.18,2a4.11,4.11,0,0,0,0,1c-.15.24-.32.47-.48.71-.27.41-.57.76-.84,1.16-.55.83-.41-1-.43-1.17a.39.39,0,0,0-.66-.27c-.51.52-1.64,3.44-1.73.78a.38.38,0,0,0-.75-.1,10.74,10.74,0,0,1-.77,2.61c.05.37,0,.44,0,.2a15.11,15.11,0,0,1-.2-1.9,5,5,0,0,0-.26-1.27,4,4,0,0,0,.11-1.13,1.89,1.89,0,0,0,1-1.25.36.36,0,0,0-.28-.36.89.89,0,0,0-1.14.39,2.12,2.12,0,0,0-.9-1.3c-1.46-.82-3,1.8-1.72,2.87a2.27,2.27,0,0,0,2,.08v0a2.39,2.39,0,0,1-3,2.39,3.63,3.63,0,0,1-2.2-1.74c-.29-.4-1,0-.66.39,1.07,1.5,3.41,3.23,5.24,1.7a5.43,5.43,0,0,0,.9-.91,14.18,14.18,0,0,0,.38,2.36c.13.4.59.73,1,.35a3.41,3.41,0,0,0,.88-1.63.72.72,0,0,0,.57.41c.85,0,1.18-.7,1.51-1.42a2.22,2.22,0,0,0,.47,1.39.38.38,0,0,0,.54,0,26.69,26.69,0,0,0,1.75-2.15l.18.6a2,2,0,0,0,.26,2.91.39.39,0,0,0,.64-.17,4.25,4.25,0,0,0-.1-2.5,3,3,0,0,1,.42-.38,9.09,9.09,0,0,0-.14,1c0,.31.44.55.66.28a8,8,0,0,0,.78-1.71c.48,1.19,1.46,3.47,2.19,2.74a3.71,3.71,0,0,0,1-1.81c.88,1.11,1.95,2.49,1.51,2.81s0,1,.39.67S83.74,111.52,83.4,110.85Zm-15.83-5.59a3.53,3.53,0,0,1,.14.56C66.49,106.39,66.44,106.2,67.57,105.26Z"/><path class="cls-5" d="M84.45,106.27a1.35,1.35,0,0,0,0,2.7A1.35,1.35,0,0,0,84.45,106.27Z"/><path class="cls-5" d="M86.38,104.29a.68.68,0,0,0,0,1.35A.68.68,0,0,0,86.38,104.29Z"/><path class="cls-8" d="M97,45.51c-10.84,62.06-45.2,78.77-45.2,78.77H97Z"/><circle class="cls-9" cx="78.68" cy="67.11" r="13.13" transform="translate(-24.41 75.29) rotate(-45)"/><path class="cls-10" d="M91,67.11A12.36,12.36,0,1,1,78.68,54.74,12.36,12.36,0,0,1,91,67.11Z"/><path class="cls-11" d="M80.47,57c0,1-1.76,9.56-1.76,9.56S76.94,57.92,76.94,57a1.77,1.77,0,1,1,3.53,0Z"/><path class="cls-11" d="M75.15,57.42c.49.85,3.25,9.16,3.25,9.16S72.58,60,72.09,59.19a1.77,1.77,0,1,1,3.06-1.77Z"/><path class="cls-11" d="M70.77,60.49c.85.49,7.4,6.31,7.4,6.31S69.85,64,69,63.55a1.77,1.77,0,0,1,1.76-3.06Z"/><path class="cls-11" d="M68.52,65.34c1,0,9.56,1.77,9.56,1.77s-8.58,1.76-9.56,1.76a1.77,1.77,0,1,1,0-3.53Z"/><path class="cls-11" d="M69,70.66c.85-.49,9.16-3.25,9.16-3.25s-6.54,5.83-7.39,6.31A1.77,1.77,0,1,1,69,70.66Z"/><path class="cls-11" d="M72.06,75c.49-.85,6.31-7.39,6.31-7.39S75.61,76,75.13,76.81A1.77,1.77,0,0,1,72.06,75Z"/><path class="cls-11" d="M76.91,77.29c0-1,1.77-9.56,1.77-9.56s1.76,8.59,1.76,9.56a1.77,1.77,0,1,1-3.53,0Z"/><path class="cls-11" d="M82.24,76.82C81.75,76,79,67.66,79,67.66s5.82,6.55,6.31,7.39a1.78,1.78,0,0,1-.65,2.42A1.76,1.76,0,0,1,82.24,76.82Z"/><path class="cls-11" d="M86.61,73.75c-.84-.49-7.39-6.31-7.39-6.31s8.31,2.76,9.16,3.25a1.77,1.77,0,1,1-1.77,3.06Z"/><path class="cls-11" d="M88.87,68.9c-1,0-9.56-1.76-9.56-1.76s8.58-1.77,9.56-1.77a1.77,1.77,0,1,1,0,3.53Z"/><path class="cls-11" d="M88.39,63.58c-.84.48-9.16,3.25-9.16,3.25s6.55-5.83,7.39-6.31a1.77,1.77,0,1,1,1.77,3.06Z"/><path class="cls-11" d="M85.33,59.2c-.5.85-6.32,7.4-6.32,7.4s2.76-8.32,3.25-9.17a1.77,1.77,0,0,1,3.07,1.77Z"/><path class="cls-9" d="M70.55,86.52a6.77,6.77,0,1,1-6.77-6.76A6.77,6.77,0,0,1,70.55,86.52Z"/><path class="cls-10" d="M70.16,86.52a6.38,6.38,0,1,1-6.38-6.37A6.38,6.38,0,0,1,70.16,86.52Z"/><path class="cls-11" d="M64.71,81.29c0,.5-.91,4.93-.91,4.93s-.91-4.43-.91-4.93a.91.91,0,0,1,1.82,0Z"/><path class="cls-11" d="M62,81.53c.25.44,1.68,4.72,1.68,4.72s-3-3.37-3.26-3.81A.91.91,0,0,1,62,81.53Z"/><path class="cls-11" d="M59.71,83.11c.43.26,3.81,3.26,3.81,3.26s-4.29-1.43-4.72-1.68a.91.91,0,0,1-.34-1.24A.92.92,0,0,1,59.71,83.11Z"/><path class="cls-11" d="M58.55,85.61c.5,0,4.92.91,4.92.91s-4.42.91-4.92.92a.92.92,0,1,1,0-1.83Z"/><path class="cls-11" d="M58.79,88.36c.44-.25,4.72-1.68,4.72-1.68s-3.37,3-3.81,3.26a.91.91,0,0,1-.91-1.58Z"/><path class="cls-11" d="M60.37,90.61c.25-.43,3.25-3.81,3.25-3.81S62.2,91.09,62,91.53a.91.91,0,0,1-1.58-.92Z"/><path class="cls-11" d="M62.87,91.78c0-.51.91-4.93.91-4.93s.91,4.42.91,4.93a.91.91,0,1,1-1.82,0Z"/><path class="cls-11" d="M65.62,91.53c-.25-.43-1.68-4.72-1.68-4.72s3,3.38,3.26,3.81a.92.92,0,0,1-.34,1.25A.9.9,0,0,1,65.62,91.53Z"/><path class="cls-11" d="M67.87,90c-.43-.25-3.81-3.25-3.81-3.25s4.29,1.42,4.72,1.67A.91.91,0,1,1,67.87,90Z"/><path class="cls-11" d="M69,87.45c-.51,0-4.93-.91-4.93-.91s4.42-.91,4.93-.91a.91.91,0,1,1,0,1.82Z"/><path class="cls-11" d="M68.79,84.71c-.44.25-4.72,1.67-4.72,1.67s3.37-3,3.81-3.25a.91.91,0,0,1,.91,1.58Z"/><path class="cls-11" d="M67.21,82.45C67,82.89,64,86.26,64,86.26s1.43-4.28,1.68-4.72a.91.91,0,0,1,1.24-.34A.92.92,0,0,1,67.21,82.45Z"/><path class="cls-9" d="M85.65,94.2a4.15,4.15,0,1,1-4.15-4.14A4.15,4.15,0,0,1,85.65,94.2Z"/><path class="cls-10" d="M85.4,94.2a3.9,3.9,0,1,1-3.9-3.9A3.9,3.9,0,0,1,85.4,94.2Z"/><path class="cls-11" d="M82.07,91c0,.31-.56,3-.56,3S81,91.3,81,91a.56.56,0,0,1,1.12,0Z"/><path class="cls-11" d="M80.39,91.14c.15.27,1,2.9,1,2.9s-1.84-2.07-2-2.34a.56.56,0,0,1,1-.56Z"/><path class="cls-11" d="M79,92.11c.27.16,2.34,2,2.34,2s-2.63-.88-2.9-1a.56.56,0,0,1,.56-1Z"/><path class="cls-11" d="M78.29,93.64c.31,0,3,.56,3,.56s-2.71.56-3,.56a.56.56,0,0,1,0-1.12Z"/><path class="cls-11" d="M78.44,95.33c.27-.16,2.89-1,2.89-1s-2.06,1.84-2.33,2a.56.56,0,1,1-.56-1Z"/><path class="cls-11" d="M79.41,96.71c.15-.27,2-2.34,2-2.34s-.87,2.63-1,2.9a.56.56,0,0,1-1-.56Z"/><path class="cls-11" d="M80.94,97.42c0-.31.56-3,.56-3s.56,2.71.56,3a.56.56,0,1,1-1.12,0Z"/><path class="cls-11" d="M82.62,97.27c-.15-.27-1-2.89-1-2.89s1.84,2.07,2,2.33a.56.56,0,0,1-1,.56Z"/><path class="cls-11" d="M84,96.3c-.27-.15-2.34-2-2.34-2s2.63.87,2.89,1a.57.57,0,0,1,.21.77A.56.56,0,0,1,84,96.3Z"/><path class="cls-11" d="M84.72,94.77c-.31,0-3-.56-3-.56s2.71-.55,3-.55a.55.55,0,0,1,.56.55A.56.56,0,0,1,84.72,94.77Z"/><path class="cls-11" d="M84.57,93.09c-.27.15-2.89,1-2.89,1s2.06-1.84,2.33-2a.56.56,0,0,1,.76.21A.55.55,0,0,1,84.57,93.09Z"/><path class="cls-11" d="M83.6,91.71c-.15.26-2,2.33-2,2.33s.87-2.62,1-2.89a.57.57,0,0,1,.77-.21A.58.58,0,0,1,83.6,91.71Z"/><path class="cls-12" d="M68.56,34.08v4.35s0,0,0,.07c0,2,2.62,3.57,5.86,3.57s5.87-1.6,5.87-3.57V34.08Z"/><path class="cls-6" d="M80.28,34.23c0,2-2.63,3.57-5.87,3.57s-5.86-1.6-5.86-3.57,2.62-3.57,5.86-3.57S80.28,32.26,80.28,34.23Z"/></g></g></g></svg>