<svg xmlns="http://www.w3.org/2000/svg" viewBox="0 0 148.82 148.82"><defs><style>.cls-1{fill:#e7cc98;}.cls-2{opacity:0.3;}.cls-3{fill:#8cc63f;}.cls-4{fill:#39b54a;}.cls-5{fill:#009245;}</style></defs><title>Asset 7</title><g id="Layer_2" data-name="Layer 2"><g id="Objects"><rect class="cls-1" width="148.82" height="148.82"/><polygon class="cls-2" points="93.86 31.95 148.79 85.6 148.81 148.67 93.47 148.82 64.7 119.67 67.24 104.53 62.66 72.23 93.86 31.95"/><path class="cls-3" d="M96.09,71.61l-2.44-2.14-2.44-2.15a84.51,84.51,0,0,0-15,28c1-14,2.56-24.41,2.58-24.57l-6.43-.94c0,.17-1.64,11.33-2.71,26.11-3.3-23.63-11.08-29.16-12.17-29.83L54.1,71.61c.11.06,10.54,8.22,10.54,48.12H78.83C78.83,91.69,95.92,71.81,96.09,71.61Z"/><path class="cls-4" d="M109.21,62.47a9.21,9.21,0,0,0-1.63-5.23A11.79,11.79,0,0,0,96.49,41.48a11.27,11.27,0,0,0-2.11.21,8.1,8.1,0,0,0-9.87-11.93,12.44,12.44,0,0,0-4-.66,12.32,12.32,0,0,0-11,6.78,10.43,10.43,0,0,0-14.11,5.66c-.24,0-.48,0-.73,0a11,11,0,0,0-11,11,11.55,11.55,0,0,0,.24,2.29,8.21,8.21,0,1,0,7.79,14.45,10.22,10.22,0,0,0,4.93,4.45A8.68,8.68,0,0,0,71,76.9a8.06,8.06,0,0,0,4.62,1.44,8.15,8.15,0,0,0,7.6-5.23,8.57,8.57,0,0,0,10.89-1.3,5.65,5.65,0,0,0,11.19-1.09c0-.23,0-.45-.06-.67A9.18,9.18,0,0,0,109.21,62.47Z"/><path class="cls-5" d="M96.28,66.07a13.74,13.74,0,0,1-2.79.28,13.47,13.47,0,0,1-2.85-.3,11.66,11.66,0,0,1-7.52,2.5c-.16,0-.31,0-.47,0a11.13,11.13,0,0,1-9.89,5.21,11.37,11.37,0,0,1-8.32-3.23,10.94,10.94,0,0,1-8.63-5.35c-8.34-4.07-8.51-17.42-.51-21.88a13.57,13.57,0,0,1,.35-2.21c-.07.16-.16.31-.23.48-.24,0-.48,0-.73,0a11,11,0,0,0-11,11,11.55,11.55,0,0,0,.24,2.29,8.21,8.21,0,1,0,7.79,14.45,10.22,10.22,0,0,0,4.93,4.45A8.68,8.68,0,0,0,71,76.9a8.06,8.06,0,0,0,4.62,1.44,8.15,8.15,0,0,0,7.6-5.23,8.57,8.57,0,0,0,10.89-1.3,5.64,5.64,0,0,0,5.54,4.56,5.55,5.55,0,0,0,2.54-.63A11.93,11.93,0,0,1,96.28,66.07Z"/></g></g></svg>