<svg xmlns="http://www.w3.org/2000/svg" viewBox="0 0 148.86 148.82"><defs><style>.cls-1{fill:#e7cc98;}.cls-2{opacity:0.3;}.cls-3{fill:#69a740;}.cls-4{fill:#a0cd15;}.cls-5{fill:#7cba31;}.cls-6{fill:#3f7e3f;}.cls-7{opacity:0.8;}.cls-8{fill:#006837;}</style></defs><title>Asset 6</title><g id="Layer_2" data-name="Layer 2"><g id="Objects"><rect class="cls-1" width="148.82" height="148.82"/><polygon class="cls-2" points="127.89 36.92 148.86 57.89 148.82 148.63 73.32 148.79 35.87 110.96 111.47 30.54 119.42 39.07 127.89 36.92"/><path class="cls-3" d="M102.15,37.69c.49-.89,4.89-8.64,9.86-8.47,2.24.07,4.07,1.61,5.44,4.56.8,1.71,2.08,3.77,3.68,3.92s3.65-2,4.19-2.74L128,36.82c-.33.46-3.23,4.45-7.13,4.12-2.53-.22-4.67-2.18-6.35-5.8-.56-1.2-1.46-2.64-2.6-2.68-2.14-.07-5.33,3.93-6.91,6.79Z"/><path class="cls-4" d="M101,117.59A51.7,51.7,0,1,1,115.72,46,51.69,51.69,0,0,1,101,117.59Z"/><path class="cls-5" d="M115.72,46A51.7,51.7,0,1,0,101,117.59,51.69,51.69,0,0,0,115.72,46ZM63.06,92.49a32.53,32.53,0,1,1,45.06,9.28A32.83,32.83,0,0,1,63.06,92.49Z"/><path class="cls-3" d="M115.72,46A51.7,51.7,0,1,0,101,117.59,51.69,51.69,0,0,0,115.72,46ZM45.47,97.59a42.85,42.85,0,0,1,12.11-58.8c19.32-12.72,46.06-7.21,58.79,12.11a42.45,42.45,0,0,1-70.9,46.69Z"/><path class="cls-6" d="M34.4,102.94C19.16,79.79,25.75,47.76,48.9,32.51a51,51,0,0,1,44.4-5.45,51.7,51.7,0,1,0-13.15,98.49A51.25,51.25,0,0,1,34.4,102.94Z"/><g class="cls-7"><path class="cls-8" d="M62.46,23.69s-.29,6.83-3.29,8.32-11.31.68-13.28,8.76S43.8,50.88,39.16,53.45s-12.77,9.39-11.67,14-1.4,11.16-6.26,13.39L22,85.24s11.36-8.46,10.36-17.08S33,57,43.29,54.37,47.68,42,52.65,39.22,68.3,35.71,68.72,33s-3.26-9.82-3.26-9.82Z"/><path class="cls-8" d="M89.47,25.57s-5.81,5.07-7,8.15-3.35,8.69-6.06,10.47S64.88,44,64.26,48.43s-1,12.81-5,13.54-7-2.22-9.7,1.52-1.32,7.35-2.76,9.59-5.4-.33-6.32,4.17S39,95,27.08,99l-.75-1.42s10.51-4.69,8.08-12.81S36.65,73,39.06,71.69s6.37,3.26,5.81-5.45,7.36-12.94,10.94-9.47,5.56-.42,5.22-7.33S68.75,41,72.94,41.92c4,1.26,8-5.06,7.53-8.74s5.09-8.8,5.09-8.8Z"/><path class="cls-8" d="M98.46,29.66s-9.95,4.61-11.11,9.5S88.55,56.84,83,59.52s-17.1,8.35-18,14,2.29,12.35-4.72,17.21-14.15,4-11.9,14.4-4.85,8.23-8.46,9.4l5.16,3.68s9.36.92,5.21-13.13c0,0-.75-6.31,7.09-8.06s9.12-10.14,9.12-10.14S75,82.05,75.82,76.65s-3.89-8.13,4-12.08,9.41-12.28,9.41-12.28,7.86-6.15,5.31-11.52,5.78-10,5.78-10Z"/><path class="cls-8" d="M111.17,40.18s0,.5.08,1.45.12,2.33.27,4.06c0,.88.24,1.77.37,2.76,0,.46.25,1.1.29,1.76a9.19,9.19,0,0,1-.06,2,6.36,6.36,0,0,1-.7,2.18,4.61,4.61,0,0,1-1.87,1.93,5.7,5.7,0,0,1-2.72.59c-1,0-1.61-.17-2.35-.27-.36-.06-.71-.1-1-.12s-.53.06-.26,0,.22-.29.18-.06a7.86,7.86,0,0,0,0,.93c.08.73.18,1.52.3,2.34.06.4.13.82.19,1.23l.1.63a6.64,6.64,0,0,1,.07.73l.06.65c0,.23,0,.58,0,.87a3.15,3.15,0,0,1-.16,1,2.72,2.72,0,0,1-.47,1,5.57,5.57,0,0,1-.44.51,4.19,4.19,0,0,1-.58.34,2.75,2.75,0,0,1-1.11.28,6.9,6.9,0,0,1-1.66-.13c-1.87-.39-3.36-.74-4.25.3l-.31.47-.08.11,0,0c.08-.2,0,0,0-.06l0,.08-.12.34a2.8,2.8,0,0,0-.19.64c0,.17,0,.34,0,.52a6.41,6.41,0,0,0,.59,2.54c.69,1.74,1.83,3.34,2.77,5.14a9.22,9.22,0,0,1,1.09,3,3.68,3.68,0,0,1-1.2,3.18,7,7,0,0,1-1.32,1,11.87,11.87,0,0,1-1.38.76A17.66,17.66,0,0,1,92.29,86a42.24,42.24,0,0,0-5.6,1.73A7.87,7.87,0,0,0,83,91.14l-.16.28,0,0c0,.11,0-.11,0-.07l0,.09-.07.16-.31.68a2.15,2.15,0,0,0-.2.59l-.13.51A9.1,9.1,0,0,0,82,95.87a25.24,25.24,0,0,0,.4,2.68,15,15,0,0,1,.35,3.23,7.67,7.67,0,0,1-.15,1,7.36,7.36,0,0,1-.47,1.12,8.38,8.38,0,0,1-.81,1c-.31.21-.63.41-.94.6a9.8,9.8,0,0,1-3.36.78c-.88.08-1.83.13-2.77.15s-1.82,0-2.7,0c-1.75-.06-3.49-.19-5-.22a7.49,7.49,0,0,0-1.39.1c.05,0,.06-.1.09-.12v-.05s.07-.36,0-.18v0l0,.28a5.34,5.34,0,0,0,0,.8,30.66,30.66,0,0,1-.18,8.49,10.42,10.42,0,0,1-3.14,6,10,10,0,0,1-3.76,2l-1.45.35-.08-.33L58,123a9.43,9.43,0,0,0,3-2.37,9.26,9.26,0,0,0,2-5.39,36.66,36.66,0,0,0-.66-7.93,9,9,0,0,1-.06-1.48l0-.29v0l0-.25.06-.15.12-.3a2.87,2.87,0,0,1,.8-1,5.84,5.84,0,0,1,3.23-.91c1.79-.09,3.41,0,5.12,0,.84,0,1.69,0,2.55,0s1.68-.06,2.61-.13c.41,0,.74-.1,1.12-.14a4.22,4.22,0,0,0,.86-.26.7.7,0,0,1,.24-.13.18.18,0,0,1,.11-.1.44.44,0,0,1,.08-.17c0-.09,0-.23.07-.35.1-1.27-.45-3.37-.51-5.49a12.55,12.55,0,0,1,.32-3.36A11.26,11.26,0,0,1,79.69,91l.34-.66.08-.17,0-.08s.13-.23.09-.15l0,0,.23-.34A11.06,11.06,0,0,1,82.75,87a10.18,10.18,0,0,1,3-1.66,42.81,42.81,0,0,1,6.1-1.17,15.9,15.9,0,0,0,2.77-.74,12,12,0,0,0,1.32-.57,6.06,6.06,0,0,0,1.15-.7,2.48,2.48,0,0,0,1-2.14,7.83,7.83,0,0,0-.91-2.61c-.89-1.71-2-3.32-3-5.13a9.12,9.12,0,0,1-1-3c0-.3,0-.61,0-.91a4.58,4.58,0,0,1,.12-.74l.08-.35,0-.09c0-.06,0,.08,0-.15l0,0,.09-.19L94,66a4.22,4.22,0,0,1,3.07-1.77,16.59,16.59,0,0,1,3,.08,4.25,4.25,0,0,0,1,0c.07,0,.23,0,.17-.08s0,0,0,0,0,0,0,0,0-.11,0-.17,0-.21,0-.34a3.37,3.37,0,0,0,0-.44l-.1-.65c-.13-.83-.27-1.65-.4-2.45s-.26-1.7-.32-2.59a10.78,10.78,0,0,1,0-1.49,3.77,3.77,0,0,1,.29-1,2.35,2.35,0,0,1,.94-1.08,3.21,3.21,0,0,1,2-.37c.47,0,.88.11,1.27.18.74.14,1.53.33,2,.38a2.91,2.91,0,0,0,1.39-.18,3.15,3.15,0,0,0,1.55-2.21,7.92,7.92,0,0,0,.2-1.52c0-.49,0-.94,0-1.54a21.74,21.74,0,0,1,0-3c.12-1.79.33-3.17.48-4.11s.27-1.43.27-1.43Z"/><path class="cls-8" d="M121.92,58.61s0,.38-.16,1.09-.31,1.77-.64,3.09a27.92,27.92,0,0,1-1.58,4.71A19.38,19.38,0,0,1,116,73,18.16,18.16,0,0,1,113,75.53a19.43,19.43,0,0,0-2.81,2,1.19,1.19,0,0,0-.31.88,3.91,3.91,0,0,0,.09.76,7.49,7.49,0,0,0,.2.78A14.2,14.2,0,0,0,112,83.32a22.51,22.51,0,0,1,1.23,2,5.85,5.85,0,0,1,.51,1.5,3.68,3.68,0,0,1-.19,2,5.13,5.13,0,0,1-2.13,2.39,9.37,9.37,0,0,1-2.5,1.09c-3.2.85-6.21,1-8.78,2a6.37,6.37,0,0,0-4,4l-.15.46-.15.55-.27,1.08c-.72,2.88-1.23,5.81-1.94,8.66a29,29,0,0,1-1.32,4.18,9.76,9.76,0,0,1-2.45,3.65A7.33,7.33,0,0,1,88,118l-1.7.82L83,120.39a81.74,81.74,0,0,1-10.36,4.2c-1.28.44-2.32.67-3,.86l-1.07.28-.08-.31,1-.34c.68-.22,1.69-.51,2.93-1a80.32,80.32,0,0,0,10-4.72l3.14-1.74,1.66-.92a5.3,5.3,0,0,0,1.43-1c1.66-1.63,2.38-4.36,3-7.09s1-5.73,1.57-8.75l.25-1.14c.07-.34.17-.75.3-1.18a9.32,9.32,0,0,1,1.13-2.39A9.6,9.6,0,0,1,99,91.84c3.09-1.42,6.33-1.73,8.92-2.63a6.23,6.23,0,0,0,1.61-.73,2.12,2.12,0,0,0,.84-.86c0-.07,0-.27-.2-.81s-.62-1.09-1-1.7a14.78,14.78,0,0,1-2-4.26,11.38,11.38,0,0,1-.23-1.24,8.15,8.15,0,0,1,0-1.28,4.17,4.17,0,0,1,1.19-2.74,18.14,18.14,0,0,1,3.51-2.3,17.09,17.09,0,0,0,2.71-2A19.37,19.37,0,0,0,118,66.72a33.89,33.89,0,0,0,2.11-4.25c.52-1.23.85-2.21,1.1-2.9l.37-1Z"/><path class="cls-8" d="M99.73,118.4c-.36-4.35,7.54-14.12,11.38-16.65,3-2,2.23-7.46,2.85-10.48.09-.4.16-.77.24-1.12.76-3.39,8.41-5.17,9-5.45l-.33,1.52c-1.46.68-4.85,3-5.35,5.18-.07.34-.15.7-.23,1.1-.68,3.28-1.72,8.25-5.3,10.61-3.79,2.49-10.85,10.83-10.57,14.19Z"/></g></g></g></svg>