<svg xmlns="http://www.w3.org/2000/svg" viewBox="0 0 148.83 148.82"><defs><style>.cls-1{fill:#e7cc98;}.cls-2{opacity:0.3;}.cls-3{fill:#ffe8bc;}.cls-4{fill:#c69c6d;}.cls-5{fill:#009245;}.cls-6{fill:#006837;}.cls-7{fill:#fff;}.cls-8{fill:#39b54a;}</style></defs><title>Asset 8</title><g id="Layer_2" data-name="Layer 2"><g id="Objects"><rect class="cls-1" width="148.83" height="148.82"/><polygon class="cls-2" points="79.28 18.04 148.71 87.46 148.82 148.63 77.05 148.82 59.01 130.79 79.28 18.04"/><path class="cls-3" d="M71.16,18h6.5a1.62,1.62,0,0,1,1.62,1.62v9.75A1.63,1.63,0,0,1,77.66,31h-6.5a1.63,1.63,0,0,1-1.62-1.62V19.66A1.62,1.62,0,0,1,71.16,18Z"/><path class="cls-4" d="M77.66,18H76.23V31h1.43a1.63,1.63,0,0,0,1.63-1.62V19.66A1.63,1.63,0,0,0,77.66,18Z"/><path class="cls-5" d="M84.29,61.89c-3.31-2.45-4.57-4.86-5-6.69V32.39h.4a1.63,1.63,0,0,0,1.63-1.63V26.43a1.62,1.62,0,0,0-1.63-1.62H69.13a1.62,1.62,0,0,0-1.62,1.62v4.33a1.63,1.63,0,0,0,1.62,1.63h.41V55.2c-.43,1.83-1.7,4.24-5,6.69-6.77,5-5.41,12.32-5.41,21.8v47.1H89.71V83.69C89.71,74.21,91.06,66.9,84.29,61.89Z"/><path class="cls-6" d="M84.29,61.89c-3.31-2.45-4.57-4.86-5-6.69V32.39h.4a1.63,1.63,0,0,0,1.63-1.63V26.43a1.62,1.62,0,0,0-1.63-1.62H76.44a1.62,1.62,0,0,1,1.63,1.62v4.33a1.63,1.63,0,0,1-1.63,1.63H76V55.2c.43,1.83,1.69,4.24,5,6.69,6.76,5,5.41,12.32,5.41,21.8v47.1h3.25V83.69C89.71,74.21,91.06,66.9,84.29,61.89Z"/><rect class="cls-7" x="59.01" y="82.4" width="30.7" height="29.24"/><path class="cls-8" d="M70.24,60.62s-6.67,3.4-8,7.35-.27,7.63,1.77,7S65.2,63.89,70.24,60.62Z"/></g></g></svg>