<svg xmlns="http://www.w3.org/2000/svg" viewBox="0 0 148.83 148.92"><defs><style>.cls-1{fill:#e7cc98;}.cls-2{opacity:0.3;}.cls-3{fill:#730000;}.cls-4{fill:#f7e8d7;}.cls-5{fill:red;}.cls-6{fill:#39b54a;}.cls-7{fill:#a60000;}</style></defs><title>Asset 1</title><g id="Layer_2" data-name="Layer 2"><g id="Objects"><rect class="cls-1" width="148.82" height="148.82"/><polyline class="cls-2" points="45.75 112.65 82.02 148.92 148.82 148.82 148.83 77.61 103.16 32.04"/><rect class="cls-3" x="43.04" y="46.91" width="65.17" height="69.64" rx="11.37" ry="11.37"/><rect class="cls-4" x="49.64" y="64.89" width="51.97" height="33.68"/><path class="cls-5" d="M103.09,46.34l.07.14L101.5,43.2h0a6.84,6.84,0,0,0-2.86-13.06H52.55A6.84,6.84,0,0,0,49.7,43.2h0L48.1,46.48h.2a4.14,4.14,0,0,0-3.52,3.42,2.76,2.76,0,0,0,5.51,0,2.86,2.86,0,0,1,2.87-2.76,2.76,2.76,0,0,1,2.75,2.76,2.76,2.76,0,0,0,5.51,0,2.75,2.75,0,1,1,5.5,0,2.76,2.76,0,0,0,5.51,0,2.76,2.76,0,1,1,5.51,0,2.76,2.76,0,0,0,5.51,0,2.76,2.76,0,1,1,5.51,0,2.75,2.75,0,0,0,5.5,0,2.76,2.76,0,1,1,5.51,0,2.76,2.76,0,0,0,5.51,0C105.48,48.38,104.61,46.34,103.09,46.34Z"/><rect class="cls-4" x="48.1" y="42.13" width="55.05" height="4.35"/><path class="cls-5" d="M79.13,80.1c-.71,4.42-5.88,13.56-10.3,12.84s-6.41-11-5.69-15.44a8.1,8.1,0,1,1,16,2.6Z"/><path class="cls-6" d="M69.05,74.27l.14-.15v0l1.59-1.43h0l-.15.13.17-.09,0,.16-.08.38a6.79,6.79,0,0,0-.09,1.58,1.86,1.86,0,0,0,.06.45,2.54,2.54,0,0,0,.14.48,1.94,1.94,0,0,0,.86,1,.68.68,0,0,0,.54,0l.07,0a1.62,1.62,0,0,0,.81-.6,2.43,2.43,0,0,0,.3-.67,3.24,3.24,0,0,0,.06-1.16v.3c0-.12,0-.24,0-.36a4.2,4.2,0,0,0,.81.53,2.27,2.27,0,0,0,.77.23,1.78,1.78,0,0,0,1.19-.28l0,0a1,1,0,0,0,.42-1.08,2.6,2.6,0,0,0-.16-.44,1.63,1.63,0,0,0-.19-.36c-.1-.14-.23-.32-.32-.43l-.48-.53-.16-.18,0,0a4.73,4.73,0,0,0-.44-.28c.24-.16.46-.35.69-.53a.12.12,0,0,0,0-.12.11.11,0,0,0-.14-.07l-.9.31-.74.09h-.25a2.32,2.32,0,0,0-.57-.55l-.11-.07.13-.12c.72-.61,1.45-1.2,2.2-1.77a.33.33,0,0,0,.09-.47.34.34,0,0,0-.47-.1l0,0c-.78.53-1.57,1-2.38,1.52l-.6.37s-.09,0-.18.07a3.23,3.23,0,0,0-.25-.29,1.54,1.54,0,0,0-.31-.22c.08-.23.15-.45.21-.67l.06-.86a.1.1,0,0,0-.07-.11.11.11,0,0,0-.13.07v0a5,5,0,0,1-.64,1.24,2.46,2.46,0,0,0-.46-.08.57.57,0,0,0-.46.13l0,0a1,1,0,0,0-.41.79l-.6-.08-.24,0h-.1a.81.81,0,0,0-.43,1.54l.39.16c.28.12.53.19.8.29L68,73.09l-.07.08a.81.81,0,0,0,0,1.09A.8.8,0,0,0,69.05,74.27Zm3.29.87h0S72.37,75.15,72.34,75.14Zm2.06-1h0S74.41,74.14,74.4,74.11Z"/><path class="cls-7" d="M84.57,91.38c-2.77,2.57-11,6-13.53,3.2S72.5,83.9,75.27,81.34a6.84,6.84,0,1,1,9.3,10Z"/><path class="cls-6" d="M80.89,82.27l.16,0v0l1.79-.12h-.16l.16,0-.11.09-.25.21a5.89,5.89,0,0,0-.89,1,2,2,0,0,0-.19.33,1.76,1.76,0,0,0-.15.39,1.68,1.68,0,0,0,.07,1.09.55.55,0,0,0,.34.31l.06,0a1.35,1.35,0,0,0,.84,0,2.13,2.13,0,0,0,1.19-1l-.16.2c.07-.08.12-.17.19-.25a3.34,3.34,0,0,0,.25.78,1.94,1.94,0,0,0,.4.55,1.51,1.51,0,0,0,.94.43h0a.81.81,0,0,0,.83-.51,2,2,0,0,0,.14-.37,1.31,1.31,0,0,0,0-.34c0-.14,0-.33,0-.45l0-.61,0-.2v0c0-.14-.1-.28-.15-.42H87a.09.09,0,0,0,0-.18L86.25,83l-.54-.33-.16-.13a2.21,2.21,0,0,0-.09-.67,1,1,0,0,1,0-.1h.15c.8,0,1.59,0,2.39,0a.28.28,0,0,0,.3-.26.29.29,0,0,0-.26-.31h0c-.8-.05-1.59-.13-2.38-.23L85,80.83s-.08,0-.16,0a1.17,1.17,0,0,0,0-.32,1.42,1.42,0,0,0-.08-.31l.48-.34.49-.53a.09.09,0,0,0,0-.11.1.1,0,0,0-.12,0l0,0a4.34,4.34,0,0,1-1.07.5,2.52,2.52,0,0,0-.26-.29.45.45,0,0,0-.38-.16h0a.81.81,0,0,0-.68.32l-.36-.37L82.68,79h0L82.61,79a.68.68,0,0,0-1.08.8l.18.31c.12.22.25.4.38.61l-1.31.24-.09,0a.68.68,0,0,0,.2,1.34Zm1.74,2.29h0Zm1.9.38h0C84.54,85,84.53,85,84.53,84.94Z"/></g></g></svg>