<svg xmlns="http://www.w3.org/2000/svg" viewBox="0 0 148.82 148.82"><defs><style>.cls-1{fill:#e7cc98;}.cls-2{opacity:0.3;}.cls-3{fill:#ba3d3f;}.cls-4{fill:#faffe5;}</style></defs><title>Asset 2</title><g id="Layer_2" data-name="Layer 2"><g id="Objects"><rect class="cls-1" width="148.82" height="148.82"/><polyline class="cls-2" points="65.03 118.53 95.33 148.82 148.82 148.82 148.81 93.85 86.12 31.16"/><path class="cls-3" d="M83.57,124.13c-18.2,0-29.94-18.13-35.91-55.44C44.48,48.75,52,36.63,55.33,32.34,58.84,27.88,63,25,66.57,24.75c.53,0,1.07-.07,1.6-.07,18.23,0,30.5,26,30.61,43.12a130.11,130.11,0,0,0,1.42,14.74c1.74,13.2,3.71,28.15-2.5,36-2.49,3.15-6.15,4.93-11.17,5.44a27.17,27.17,0,0,1-3,.15Z"/><path class="cls-4" d="M68.17,26.64c16.46,0,28.55,24.59,28.66,41.17a128.86,128.86,0,0,0,1.44,15c1.6,12.17,3.6,27.33-2.1,34.53C94,120,90.81,121.58,86.34,122c-.94.09-1.87.14-2.77.14-17.08,0-28.19-17.6-34-53.8-3.06-19.17,4.07-30.75,7.28-34.83,3.74-4.77,7.54-6.67,9.86-6.85q.72-.06,1.44-.06m0-3.91c-.58,0-1.17,0-1.76.07-10,.81-25.09,18.6-20.67,46.2C50,95.49,59,126.09,83.57,126.09a31.17,31.17,0,0,0,3.16-.17c26.92-2.72,14.12-40,14-58.13-.12-17.66-12.81-45.06-32.57-45.06Z"/><path class="cls-3" d="M84.21,97c2.07,6.63.86,12.91-2.7,14s-8.14-3.35-10.21-10-.86-12.9,2.7-14S82.14,90.32,84.21,97Z"/><path class="cls-4" d="M80.38,113.1c-4.32,0-8.82-4.75-10.95-11.53a21.25,21.25,0,0,1-.81-10c.65-3.38,2.36-5.67,4.8-6.43a5.5,5.5,0,0,1,1.71-.26c4.32,0,8.82,4.74,11,11.53a21.21,21.21,0,0,1,.81,10c-.65,3.39-2.36,5.68-4.8,6.44A5.81,5.81,0,0,1,80.38,113.1ZM75.13,88.74a1.61,1.61,0,0,0-.54.09c-1,.31-1.77,1.56-2.14,3.45a17.53,17.53,0,0,0,.71,8.12c1.7,5.43,5.07,8.79,7.22,8.79a1.91,1.91,0,0,0,.54-.08c1-.31,1.77-1.57,2.14-3.45a17.57,17.57,0,0,0-.71-8.13C80.65,92.1,77.28,88.74,75.13,88.74Z"/></g></g></svg>