<svg xmlns="http://www.w3.org/2000/svg" viewBox="0 0 148.82 148.82"><defs><style>.cls-1{fill:#e7cc98;}.cls-2{opacity:0.3;}.cls-3{fill:#c69c6d;}.cls-4{fill:#a67c52;}</style></defs><title>Asset 9</title><g id="Layer_2" data-name="Layer 2"><g id="Objects"><rect class="cls-1" width="148.82" height="148.82"/><polyline class="cls-2" points="61.12 126.85 83.09 148.82 148.68 148.82 148.82 82.91 86.07 20.16"/><path class="cls-3" d="M101.82,74.41c0,33.3-12.27,60.3-27.41,60.3S47,107.71,47,74.41s12.27-60.3,27.41-60.3S101.82,41.11,101.82,74.41Z"/><path class="cls-4" d="M56.34,48s.51-.56,1.43-1.37a27,27,0,0,1,3.93-2.89,24.37,24.37,0,0,1,25.43,0,26.65,26.65,0,0,1,3.92,2.88C92,47.46,92.48,48,92.48,48l-1.43-.41c-.92-.26-2.26-.65-3.92-1a54.93,54.93,0,0,0-12.72-1.53A54.34,54.34,0,0,0,61.7,46.57c-1.67.39-3,.78-3.93,1Z"/><path class="cls-4" d="M56.34,74.41s.51-.56,1.43-1.37a27,27,0,0,1,3.93-2.89,24.37,24.37,0,0,1,25.43,0A27.35,27.35,0,0,1,91.05,73c.92.81,1.43,1.37,1.43,1.37s-.51-.13-1.43-.4-2.26-.66-3.92-1a54.93,54.93,0,0,0-12.72-1.53A54.3,54.3,0,0,0,61.7,73c-1.67.38-3,.77-3.93,1Z"/><path class="cls-4" d="M56.34,100.8s.51-.55,1.43-1.37a27,27,0,0,1,3.93-2.88,24.34,24.34,0,0,1,25.43,0,27.35,27.35,0,0,1,3.92,2.89c.92.81,1.43,1.38,1.43,1.37s-.51-.13-1.43-.4-2.26-.65-3.92-1a55.43,55.43,0,0,0-12.72-1.54A54.84,54.84,0,0,0,61.7,99.36c-1.67.38-3,.77-3.93,1S56.34,100.81,56.34,100.8Z"/></g></g></svg>