<svg xmlns="http://www.w3.org/2000/svg" viewBox="0 0 148.86 148.82"><defs><style>.cls-1{fill:#e7cc98;}.cls-2{opacity:0.3;}.cls-3{fill:#d9e021;}.cls-4{fill:#fcee21;}.cls-5{fill:#ff0;}</style></defs><title>Asset 10</title><g id="Layer_2" data-name="Layer 2"><g id="Objects"><rect class="cls-1" width="148.82" height="148.82"/><polygon class="cls-2" points="104.58 42.17 148.86 86.44 148.82 148.63 87.3 148.78 49.85 110.96 104.58 42.17"/><path class="cls-3" d="M118.51,74.42a44.1,44.1,0,1,1-44.1-44.11A44.09,44.09,0,0,1,118.51,74.42Z"/><path class="cls-4" d="M115.93,74.42A41.52,41.52,0,1,1,74.41,32.88,41.52,41.52,0,0,1,115.93,74.42Z"/><path class="cls-5" d="M80.45,40.29c0,3.27-5.94,32.11-5.94,32.11s-5.94-28.84-5.94-32.11a5.94,5.94,0,1,1,11.88,0Z"/><path class="cls-5" d="M62.56,41.87c1.64,2.84,10.91,30.78,10.91,30.78s-19.55-22-21.19-24.85a5.93,5.93,0,0,1,10.28-5.93Z"/><path class="cls-5" d="M47.86,52.18c2.84,1.64,24.84,21.2,24.84,21.2S44.76,64.11,41.92,62.47a5.94,5.94,0,1,1,5.94-10.29Z"/><path class="cls-5" d="M40.29,68.47c3.28,0,32.11,6,32.11,6s-28.83,5.92-32.11,5.93a5.94,5.94,0,1,1,0-11.88Z"/><path class="cls-5" d="M41.87,86.36c2.84-1.64,30.78-10.91,30.78-10.91S50.65,95,47.81,96.64a5.94,5.94,0,1,1-5.94-10.28Z"/><path class="cls-5" d="M52.18,101.06c1.64-2.84,21.21-24.84,21.21-24.84S64.12,104.16,62.47,107a5.94,5.94,0,0,1-10.29-5.94Z"/><path class="cls-5" d="M68.47,108.63c0-3.28,5.94-32.11,5.94-32.11s5.94,28.83,5.94,32.11a5.94,5.94,0,0,1-11.88,0Z"/><path class="cls-5" d="M86.36,107.05c-1.63-2.84-10.92-30.78-10.92-30.78s19.57,22,21.2,24.84a5.94,5.94,0,1,1-10.28,5.94Z"/><path class="cls-5" d="M101.06,96.73c-2.83-1.64-24.84-21.2-24.84-21.2S104.16,84.8,107,86.44a5.94,5.94,0,0,1-5.94,10.29Z"/><path class="cls-5" d="M108.64,80.45c-3.28,0-32.11-5.94-32.11-5.94s28.83-5.94,32.11-5.94a5.94,5.94,0,0,1,0,11.88Z"/><path class="cls-5" d="M107.05,62.56c-2.84,1.63-30.79,10.91-30.79,10.91s22-19.56,24.86-21.2a5.94,5.94,0,1,1,5.93,10.29Z"/><path class="cls-5" d="M96.74,47.86C95.1,50.69,75.53,72.7,75.53,72.7s9.28-27.94,10.91-30.78a5.95,5.95,0,0,1,10.3,5.94Z"/></g></g></svg>