<svg xmlns="http://www.w3.org/2000/svg" viewBox="0 0 148.94 148.82"><defs><style>.cls-1{fill:#e7cc98;}.cls-2{opacity:0.3;}.cls-3{fill:#ffe464;}.cls-4{fill:#fff199;}.cls-5{fill:#e8c95d;}.cls-6{fill:#8158ae;}.cls-7{fill:#f7a507;}</style></defs><title>Asset 4</title><g id="Layer_2" data-name="Layer 2"><g id="Objects"><rect class="cls-1" width="148.82" height="148.82"/><polygon class="cls-2" points="104.33 31.69 148.94 75.02 148.81 148.67 76.16 148.82 44.5 116.78 104.33 31.69"/><rect class="cls-3" x="44.49" y="36.51" width="59.85" height="75.8"/><path class="cls-4" d="M104.08,32.08a1.87,1.87,0,0,1-1.87-1.86,1.86,1.86,0,0,1-3.72,0,1.86,1.86,0,0,1-3.72,0,1.87,1.87,0,0,1-3.73,0,1.86,1.86,0,0,1-3.72,0,1.87,1.87,0,0,1-3.73,0,1.86,1.86,0,1,1-3.72,0,1.87,1.87,0,0,1-3.73,0,1.86,1.86,0,0,1-3.72,0,1.86,1.86,0,0,1-3.72,0,1.87,1.87,0,0,1-3.73,0,1.86,1.86,0,1,1-3.72,0,1.87,1.87,0,0,1-3.73,0,1.86,1.86,0,0,1-3.72,0,1.86,1.86,0,0,1-3.72,0,1.87,1.87,0,0,1-3.73,0,1.86,1.86,0,0,1-1.86,1.86v4.43h59.84V32A1.84,1.84,0,0,1,104.08,32.08Z"/><path class="cls-5" d="M44.75,116.74a1.87,1.87,0,0,1,1.86,1.87,1.86,1.86,0,1,1,3.72,0,1.87,1.87,0,1,1,3.73,0,1.86,1.86,0,1,1,3.72,0,1.86,1.86,0,1,1,3.72,0,1.87,1.87,0,1,1,3.73,0,1.86,1.86,0,1,1,3.72,0,1.87,1.87,0,1,1,3.73,0,1.86,1.86,0,1,1,3.72,0,1.87,1.87,0,1,1,3.73,0,1.86,1.86,0,1,1,3.72,0,1.87,1.87,0,1,1,3.73,0,1.86,1.86,0,1,1,3.72,0,1.86,1.86,0,1,1,3.72,0,1.87,1.87,0,1,1,3.73,0,1.86,1.86,0,1,1,3.72,0,1.87,1.87,0,0,1,1.86-1.87v-4.43H44.49v4.49A1.1,1.1,0,0,1,44.75,116.74Z"/><path class="cls-6" d="M89.63,83.72c-7,11.47-19.52,16.59-27.92,11.44S52.18,76.56,59.2,65.1,78.71,48.51,87.12,53.66,96.64,72.26,89.63,83.72Z"/><path class="cls-7" d="M82.65,61.51a.82.82,0,0,0-1.39.58c-.1,1.08-.22,2.11-.4,3.13a.1.1,0,0,0,0,0A.82.82,0,0,0,80,65c-1.94.44-3.67,4.73-2.16,6.29l-.41.78c-.93,1.72-2.69,2-2.69-.3a5.82,5.82,0,0,0-.52-3.15.82.82,0,0,0-1.4,0,5.45,5.45,0,0,1-1.55,1.66.82.82,0,0,0-.59.78c-.06.71.14,2,.12,3.1-.06-.08-.09-.14-.16-.22a.81.81,0,0,0-1.35.35,37.17,37.17,0,0,0-.79,6c-.07-.72-.13-1.44-.17-2.17.1-.42.19-.82.29-1.16a19.43,19.43,0,0,0,.2-8.35.81.81,0,0,0-1.56,0,38.61,38.61,0,0,0-.56,9.18c-.36,1.29-.84,2.55-1.27,3.81-.1.72-.6,1-1.48.82a10.78,10.78,0,0,1-.2-3.63,2,2,0,0,0,0-.22c.09-.91-1.44-1.11-1.59-.21a1.36,1.36,0,0,0,0,.21h0a13.67,13.67,0,0,1-1.72,5.89c-2-.38-2.66-1.35-1.94-2.94a4.86,4.86,0,0,1,2.24-3.26c.94-.48.11-1.88-.82-1.4-3.09,1.59-4.68,7.19-2,9.8,2.13,2.06,3.76-.71,4.75-3.58.55,1.8,1.56,3,3.23,1.34a6.27,6.27,0,0,0,1.22-2c.1.77.21,1.53.34,2.28a.81.81,0,0,0,1.48.2c1.16-2.31,1.12-5.09,1.44-7.72a.78.78,0,0,0,1.08,0c1-1.07.85-2.48.8-3.87a3.15,3.15,0,0,1,.77-2.3c.25,2.65.71,7.54,3.69,4.78a19.8,19.8,0,0,0,3.06-4c2-.67,2.66-5,2.92-7.75,4.15,5,4.78,14.18-1.87,17.13-1,.42-.13,1.82.81,1.4,1.31-.58,3.2-.83,3.9-2.35a16.38,16.38,0,0,0,1.79-6.07C87.65,69.3,86.29,64.69,82.65,61.51Z"/></g></g></svg>