<?xml version="1.0" encoding="utf-8"?>
<!-- Generator: Adobe Illustrator 22.1.0, SVG Export Plug-In . SVG Version: 6.00 Build 0)  -->
<svg version="1.1" id="Capa_1" xmlns="http://www.w3.org/2000/svg" xmlns:xlink="http://www.w3.org/1999/xlink" x="0px" y="0px"
	 viewBox="0 0 600 600" style="enable-background:new 0 0 600 600;" xml:space="preserve">
<style type="text/css">
	.st0{display:none;stroke:#000000;stroke-miterlimit:10;}
	.st1{fill:#FFFFFF;}
</style>
<rect class="st0" width="600" height="600"/>
<g>
	<path class="st1" d="M256.5,550l-3.2,50H361h-19.3l-6.2-187.2c-14.4,2.4-21,3.4-36.1,3.4c-15.8,0-21.3-1.2-36.4-3.8l-4.8,95.8
		c-0.8-0.8-15.5-7-16.2-7.7c-5.3-2.8-12.1-1.5-15,2.2c-4.6,8-8.1,10.9-3.9,16.1"/>
	<path class="st1" d="M512.9,228.7c0.2-2.7,0.2-5.5,0.3-8.2c0-1.4,0.1-2.8,0.1-4.2s-0.1-2.8-0.1-4.1C511,94.6,415.1,0,297,0
		C177.5,0,80.7,96.8,80.7,216.3c0,106.3,76.7,194.6,177.7,212.8c12.5,2.3,25.4,3.5,38.6,3.5c12.6,0,24.9-1.1,36.9-3.2
		c10.8-1.9,21.4-4.5,31.6-7.9c2.6-0.9,5.2-1.8,7.8-2.8c2.6-1,5.1-2,7.6-3C455.1,384.5,508.1,313.1,512.9,228.7z"/>
</g>
</svg>
