<?xml version="1.0" encoding="utf-8"?>
<!-- Generator: Adobe Illustrator 22.1.0, SVG Export Plug-In . SVG Version: 6.00 Build 0)  -->
<svg version="1.1" id="Capa_1" xmlns="http://www.w3.org/2000/svg" xmlns:xlink="http://www.w3.org/1999/xlink" x="0px" y="0px"
	 viewBox="0 0 600 600" style="enable-background:new 0 0 600 600;" xml:space="preserve">
<style type="text/css">
	.st0{clip-path:url(#SVGID_2_);}
	.st1{fill:url(#SVGID_3_);stroke:#FFFFFF;stroke-miterlimit:10;}
	.st2{fill:#FFFFFF;}
</style>
<g>
	<defs>
		<path id="SVGID_1_" d="M472,600H128C57.6,600,0,542.4,0,472V128C0,57.6,57.6,0,128,0h344c70.4,0,128,57.6,128,128v344
			C600,542.4,542.4,600,472,600z"/>
	</defs>
	<clipPath id="SVGID_2_">
		<use xlink:href="#SVGID_1_"  style="overflow:visible;"/>
	</clipPath>
	<g class="st0">
		<g>
			
				<linearGradient id="SVGID_3_" gradientUnits="userSpaceOnUse" x1="-2.020442e-08" y1="2.020352e-08" x2="596.3283" y2="596.3283">
				<stop  offset="0" style="stop-color:#34952A"/>
				<stop  offset="0.2301" style="stop-color:#33962D"/>
				<stop  offset="0.3784" style="stop-color:#319B35"/>
				<stop  offset="0.5037" style="stop-color:#2DA344"/>
				<stop  offset="0.6162" style="stop-color:#27AF59"/>
				<stop  offset="0.7201" style="stop-color:#20BE74"/>
				<stop  offset="0.8176" style="stop-color:#17D096"/>
				<stop  offset="0.9089" style="stop-color:#0DE5BD"/>
				<stop  offset="0.9955" style="stop-color:#01FEE9"/>
				<stop  offset="1" style="stop-color:#00FFEC"/>
			</linearGradient>
			<rect class="st1" width="600" height="600"/>
			<path class="st2" d="M265.1,556.9l-2.8,43.1h92.9l-16.6,0l-5.4-161.4c-12.4,2-18.1,2.9-31.1,2.9c-13.7,0-18.3-1.1-31.4-3.3
				l-4.2,82.6c-0.7-0.6-13.3-6-14-6.6c-4.6-2.5-10.4-1.3-13,1.9c-3.9,6.9-7,9.4-3.4,13.9"/>
			<path class="st2" d="M486.1,280c0.1-2.4,0.2-4.7,0.2-7.1c0-1.2,0.1-2.4,0.1-3.6c0-1.2-0.1-2.4-0.1-3.6
				C484.4,164.4,401.8,82.8,300,82.8c-103,0-186.4,83.5-186.4,186.4c0,91.6,66.1,167.7,153.2,183.4c10.8,1.9,21.9,3,33.3,3
				c10.8,0,21.4-1,31.8-2.8c9.3-1.6,18.4-3.9,27.2-6.8c2.3-0.8,4.5-1.5,6.7-2.4c2.2-0.8,4.4-1.7,6.6-2.6
				C436.3,414.3,482,352.7,486.1,280z"/>
		</g>
	</g>
</g>
</svg>
