<?xml version="1.0" encoding="utf-8"?>
<!-- Generator: Adobe Illustrator 22.1.0, SVG Export Plug-In . SVG Version: 6.00 Build 0)  -->
<svg version="1.1" xmlns="http://www.w3.org/2000/svg" xmlns:xlink="http://www.w3.org/1999/xlink" x="0px" y="0px"
	 viewBox="0 0 118.4 103.8" style="enable-background:new 0 0 118.4 103.8;" xml:space="preserve">
<style type="text/css">
	.st0{fill:#422E15;}
</style>
<g id="Layer_1">
	<title>Asset 3</title>
	<g id="Layer_2_1_">
		<g id="Layer_1-2">
			<path class="st0" d="M13.5,42.4l-0.2,3.9h6.8l-0.5-14.4c-0.9,0.2-1.9,0.3-2.8,0.3s-1.9-0.1-2.8-0.3l-0.3,7.4
				c-0.1-0.1-1.2-0.5-1.2-0.6c-0.4-0.2-0.9-0.1-1.2,0.2c-0.4,0.6-0.6,0.8-0.3,1.2"/>
			<path class="st0" d="M33.3,17.6c0-0.2,0-0.4,0-0.6c0-0.1,0-0.2,0-0.3s0-0.2,0-0.3C33.1,7.2,25.5-0.2,16.3,0S-0.2,7.8,0,17
				c0.2,9.1,7.6,16.4,16.7,16.4c1.8,0,3.6-0.3,5.3-0.9l0.6-0.2l0.6-0.2C29,29.6,33,24,33.3,17.6z"/>
			<path class="st0" d="M1.8,87.4h3.8c0.6,0,1.1,0.1,1.7,0.3c0.5,0.2,0.9,0.4,1.3,0.8c0.4,0.3,0.7,0.8,0.9,1.2
				c0.2,0.5,0.3,1,0.3,1.5s-0.1,1.1-0.3,1.6S9,93.7,8.6,94s-0.8,0.6-1.3,0.8c-0.5,0.2-1.1,0.3-1.7,0.3H3.2v4.8H1.8V87.4z M3.2,93.9
				h2.2c0.4,0,0.8-0.1,1.2-0.2c0.3-0.1,0.6-0.3,0.9-0.5s0.5-0.5,0.6-0.8s0.2-0.7,0.2-1.1s-0.1-0.7-0.2-1.1c-0.1-0.3-0.3-0.6-0.6-0.8
				c-0.3-0.2-0.6-0.4-0.9-0.5c-0.4-0.1-0.8-0.2-1.2-0.2H3.2V93.9z"/>
			<path class="st0" d="M12,90.8h1.4v1.1c0.3-0.4,0.7-0.8,1.2-1c0.4-0.2,0.9-0.3,1.3-0.3c0.3,0,0.6,0,0.9,0.1V92
				c-0.3-0.1-0.7-0.2-1-0.2c-0.4,0-0.9,0.1-1.3,0.4c-0.5,0.3-0.8,0.6-1.1,1.1v6.5H12V90.8z"/>
			<path class="st0" d="M18.6,88.2c0-0.2,0.1-0.5,0.2-0.6c0.2-0.2,0.4-0.2,0.6-0.2s0.5,0.1,0.6,0.2c0.2,0.2,0.3,0.4,0.2,0.6
				c0,0.2-0.1,0.5-0.2,0.6C19.8,89,19.6,89,19.4,89s-0.5-0.1-0.6-0.2C18.6,88.7,18.5,88.4,18.6,88.2z M18.7,90.8h1.4v9h-1.4V90.8z"
				/>
			<path class="st0" d="M26.7,99.8h-1.2l-3.6-9h1.5l2.7,7l2.7-7h1.5L26.7,99.8z"/>
			<path class="st0" d="M37,98.9c-0.4,0.4-0.9,0.7-1.4,0.9c-0.5,0.2-1,0.3-1.5,0.3c-0.4,0-0.8-0.1-1.1-0.2s-0.6-0.3-0.9-0.5
				c-0.2-0.2-0.4-0.5-0.6-0.8c-0.3-0.7-0.3-1.6,0.1-2.3c0.2-0.4,0.5-0.7,0.9-1s0.9-0.5,1.3-0.6c0.6-0.2,1.2-0.2,1.7-0.2s0.9,0,1.4,0
				v-0.8c0-0.5-0.2-1-0.6-1.4c-0.4-0.4-0.9-0.6-1.5-0.5c-1,0-2,0.3-2.8,0.8v-1.2c0.9-0.5,2-0.7,3-0.7c0.5,0,0.9,0.1,1.3,0.2
				c0.4,0.1,0.7,0.4,1,0.6c0.3,0.3,0.5,0.6,0.7,1s0.3,0.8,0.2,1.2v6.2H37V98.9z M32.8,97.3c0,0.4,0.2,0.9,0.5,1.2
				c0.3,0.3,0.8,0.5,1.3,0.4c0.4,0,0.9-0.1,1.3-0.3c0.5-0.2,0.9-0.5,1.2-0.9v-2.3h-0.7h-0.7c-0.7,0-1.5,0.2-2.1,0.6
				C33.1,96.2,32.8,96.7,32.8,97.3z"/>
			<path class="st0" d="M40.5,95.3c0-0.7,0.1-1.3,0.3-1.9c0.2-0.5,0.5-1.1,0.9-1.5s0.9-0.8,1.4-1c0.6-0.2,1.2-0.4,1.8-0.3
				c0.9,0,1.8,0.2,2.6,0.6v1.3c-0.4-0.2-0.8-0.4-1.2-0.5s-0.8-0.2-1.2-0.2s-0.9,0.1-1.3,0.3c-0.4,0.2-0.7,0.4-1,0.7
				c-0.3,0.3-0.5,0.7-0.7,1.1c-0.1,0.5-0.2,0.9-0.2,1.4s0.1,1,0.2,1.4c0.1,0.4,0.4,0.8,0.7,1.1c0.3,0.3,0.6,0.6,1,0.7
				c0.4,0.2,0.8,0.3,1.3,0.3c0.4,0,0.8-0.1,1.2-0.2s0.8-0.3,1.2-0.6v1.3c-0.8,0.4-1.7,0.6-2.6,0.6c-0.6,0-1.2-0.1-1.8-0.3
				c-0.5-0.2-1-0.6-1.4-1s-0.7-0.9-0.9-1.5C40.6,96.6,40.5,96,40.5,95.3z"/>
			<path class="st0" d="M51.8,103.8h-1.4l1.7-4.2l-3.5-8.8h1.5l2.7,7l2.7-7H57L51.8,103.8z"/>
			<path class="st0" d="M60.9,94.7h4.4v1.1h-4.4V94.7z"/>
			<path class="st0" d="M73.2,88.6h-4v-1.2h9.5v1.2h-4v11.2h-1.5V88.6z"/>
			<path class="st0" d="M78.7,95.2c0-0.6,0.1-1.3,0.3-1.9c0.2-0.5,0.5-1,0.9-1.5c0.4-0.4,0.8-0.8,1.3-1s1.1-0.3,1.7-0.3
				c0.5,0,1,0.1,1.5,0.3c0.4,0.2,0.8,0.5,1.2,0.9c0.3,0.4,0.6,0.9,0.8,1.4c0.2,0.6,0.3,1.2,0.3,1.8v0.3c0,0.1,0,0.2,0,0.3h-6.4
				c0,0.5,0.1,0.9,0.3,1.4c0.2,0.4,0.4,0.7,0.7,1c0.3,0.3,0.6,0.5,1,0.7s0.8,0.2,1.2,0.2c0.4,0,0.9-0.1,1.3-0.2
				c0.5-0.2,0.9-0.4,1.3-0.7v1.3c-0.9,0.5-1.8,0.7-2.8,0.7c-0.6,0-1.2-0.1-1.8-0.3c-0.5-0.2-1-0.6-1.4-1s-0.7-1-0.9-1.5
				C78.9,96.5,78.7,95.9,78.7,95.2z M85.2,94.6c0-0.8-0.2-1.5-0.7-2.1c-0.4-0.5-1-0.8-1.7-0.8s-1.4,0.3-1.9,0.8
				c-0.5,0.6-0.8,1.3-0.8,2.1H85.2z"/>
			<path class="st0" d="M88.7,90.8h1.4v1.1c0.3-0.4,0.7-0.8,1.2-1c0.4-0.2,0.9-0.3,1.3-0.3c0.3,0,0.6,0,0.9,0.1V92
				c-0.3-0.1-0.7-0.2-1-0.2c-0.4,0-0.9,0.1-1.3,0.4c-0.5,0.3-0.8,0.6-1.2,1.1v6.5h-1.4L88.7,90.8L88.7,90.8z"/>
			<path class="st0" d="M95.5,90.8h1.4v0.9c0.7-0.7,1.7-1.1,2.8-1.2c0.5,0,1.1,0.1,1.5,0.3c0.4,0.2,0.8,0.6,1,1.1
				c0.8-0.9,1.9-1.4,3.1-1.4c0.4,0,0.8,0.1,1.2,0.2c0.3,0.1,0.7,0.3,0.9,0.6c0.3,0.3,0.5,0.6,0.6,0.9c0.1,0.4,0.2,0.8,0.2,1.2v6.2
				h-1.4v-6c0-0.5-0.2-1-0.5-1.4s-0.8-0.6-1.3-0.6c-0.4,0-0.8,0.1-1.2,0.3c-0.4,0.2-0.8,0.6-1.2,0.9v6.8h-1.4v-6
				c0-0.5-0.2-1-0.5-1.4s-0.8-0.6-1.3-0.6c-0.4,0-0.8,0.1-1.2,0.3c-0.4,0.2-0.8,0.6-1.2,0.9v6.8h-1.4L95.5,90.8L95.5,90.8z"/>
			<path class="st0" d="M110.6,98c0.7,0.5,1.6,0.8,2.5,0.8c0.5,0,1-0.1,1.3-0.4c0.3-0.2,0.5-0.6,0.5-1.1c0-0.3-0.1-0.6-0.3-0.8
				c-0.2-0.2-0.5-0.4-0.8-0.5s-0.7-0.3-1.1-0.4s-0.8-0.3-1.1-0.5c-0.3-0.2-0.6-0.4-0.8-0.8c-0.2-0.4-0.4-0.8-0.3-1.2
				c0-0.4,0.1-0.7,0.2-1.1c0.2-0.3,0.4-0.6,0.6-0.8c0.3-0.2,0.6-0.4,1-0.5s0.8-0.2,1.3-0.2c0.8,0,1.7,0.2,2.4,0.5v1.3
				c-0.7-0.4-1.5-0.7-2.3-0.7c-0.5,0-0.9,0.1-1.3,0.4c-0.3,0.2-0.5,0.6-0.5,1c0,0.3,0.1,0.6,0.3,0.8c0.2,0.2,0.5,0.4,0.8,0.5
				s0.7,0.3,1.1,0.4s0.8,0.3,1.1,0.5c0.3,0.2,0.6,0.5,0.8,0.8c0.2,0.4,0.4,0.8,0.3,1.3c0,0.4-0.1,0.7-0.2,1.1
				c-0.2,0.3-0.4,0.6-0.7,0.8c-0.3,0.2-0.6,0.4-1,0.6c-0.4,0.1-0.9,0.2-1.3,0.2c-0.9,0-1.8-0.2-2.6-0.6L110.6,98z"/>
		</g>
	</g>
	<g>
		<path class="st0" d="M0.3,65c0-1.4,0.2-2.7,0.6-3.9s1-2.2,1.8-3s1.7-1.5,2.8-2s2.3-0.7,3.6-0.7c0.9,0,1.7,0.1,2.6,0.4
			c0.9,0.2,1.7,0.6,2.5,1v2.1c-0.8-0.5-1.6-0.9-2.4-1.2c-0.8-0.3-1.6-0.4-2.4-0.4c-1,0-1.9,0.2-2.8,0.6S5,58.8,4.5,59.5
			C3.9,60.2,3.4,61,3.1,62c-0.3,0.9-0.5,2-0.5,3.1s0.2,2.2,0.5,3.1s0.8,1.8,1.4,2.5s1.3,1.2,2.1,1.6s1.8,0.6,2.8,0.6
			c0.8,0,1.6-0.1,2.4-0.4c0.8-0.3,1.6-0.7,2.4-1.2v2.1c-0.8,0.4-1.6,0.8-2.5,1s-1.7,0.4-2.6,0.4c-1.3,0-2.5-0.2-3.6-0.7
			s-2-1.1-2.8-2c-0.8-0.8-1.4-1.9-1.8-3S0.3,66.4,0.3,65z"/>
		<path class="st0" d="M23.6,55.8h1.8l7.4,18.6h-2.2L28.5,69h-8l-2.1,5.3h-2.2L23.6,55.8z M21.1,67.3h6.7l-3.3-8.6L21.1,67.3z"/>
		<path class="st0" d="M35.8,55.8h5.8c0.9,0,1.8,0.1,2.5,0.4c0.8,0.3,1.4,0.7,2,1.2c0.5,0.5,1,1.1,1.3,1.8s0.5,1.5,0.5,2.3
			s-0.2,1.6-0.5,2.3s-0.7,1.3-1.3,1.8s-1.2,0.9-2,1.2c-0.8,0.3-1.6,0.4-2.5,0.4H38v7.1h-2.2V55.8z M38,65.5h3.3
			c0.6,0,1.2-0.1,1.8-0.3c0.5-0.2,1-0.5,1.4-0.8c0.4-0.4,0.7-0.8,0.9-1.3s0.3-1,0.3-1.6s-0.1-1.1-0.3-1.6s-0.5-0.9-0.9-1.3
			C44,58.3,43.6,58,43,57.8c-0.5-0.2-1.1-0.3-1.8-0.3H38V65.5z"/>
		<path class="st0" d="M56,57.5h-6v-1.8h14.3v1.8h-6v16.8H56V57.5z"/>
		<path class="st0" d="M65.7,65c0-1.4,0.2-2.7,0.6-3.9s1-2.2,1.8-3s1.7-1.5,2.8-2c1.1-0.5,2.3-0.7,3.6-0.7c0.9,0,1.7,0.1,2.6,0.4
			s1.7,0.6,2.5,1v2.1c-0.8-0.5-1.6-0.9-2.4-1.2s-1.6-0.4-2.4-0.4c-1,0-1.9,0.2-2.8,0.6s-1.6,0.9-2.1,1.6S68.8,61,68.5,62
			c-0.3,0.9-0.5,2-0.5,3.1s0.2,2.2,0.5,3.1s0.8,1.8,1.4,2.5s1.3,1.2,2.1,1.6c0.8,0.4,1.8,0.6,2.8,0.6c0.8,0,1.6-0.1,2.4-0.4
			s1.6-0.7,2.4-1.2v2.1c-0.8,0.4-1.6,0.8-2.5,1s-1.7,0.4-2.6,0.4c-1.3,0-2.5-0.2-3.6-0.7s-2-1.1-2.8-2c-0.8-0.8-1.4-1.9-1.8-3
			C66,67.7,65.7,66.4,65.7,65z"/>
		<path class="st0" d="M83.7,55.8h2.2V64h10.2v-8.2h2.2v18.6h-2.2v-8.6H85.9v8.6h-2.2C83.7,74.4,83.7,55.8,83.7,55.8z"/>
		<path class="st0" d="M108.7,55.8h1.8l7.4,18.6h-2.2l-2.1-5.3h-8l-2.1,5.3h-2.2L108.7,55.8z M106.3,67.3h6.7l-3.3-8.6L106.3,67.3z"
			/>
	</g>
</g>
<g id="Layer_2">
	<path class="st0" d="M38.5,38.4l-6.4-10.5H36l4.2,7.3l4.2-7.3h3.9l-6.5,10.5V46h-3.5L38.5,38.4L38.5,38.4z"/>
	<path class="st0" d="M47.4,39.4c0-0.9,0.1-1.9,0.5-2.8c0.3-0.8,0.8-1.5,1.4-2.2s1.3-1.1,2.1-1.5c1.7-0.7,3.7-0.7,5.4,0
		c0.8,0.4,1.5,0.8,2.1,1.5s1.1,1.4,1.4,2.2c0.7,1.8,0.7,3.8,0,5.5c-0.6,1.7-1.9,3-3.5,3.6c-1.7,0.7-3.7,0.7-5.4,0
		c-0.8-0.4-1.5-0.8-2.1-1.5c-0.6-0.7-1.1-1.4-1.4-2.2C47.5,41.3,47.3,40.4,47.4,39.4z M50.8,39.4c0,0.6,0.1,1.1,0.2,1.7
		c0.1,0.4,0.4,0.9,0.7,1.2c0.3,0.4,0.7,0.7,1,0.8c0.4,0.2,0.9,0.3,1.3,0.3c0.4,0,0.9-0.1,1.3-0.3s0.7-0.5,1-0.8
		c0.3-0.4,0.5-0.8,0.7-1.2c0.4-1.1,0.4-2.3,0-3.3c-0.1-0.4-0.4-0.9-0.7-1.3c-0.3-0.4-0.7-0.7-1-0.8c-0.4-0.2-0.9-0.3-1.3-0.3
		c-0.4,0-0.9,0.1-1.3,0.3c-0.4,0.2-0.7,0.5-1,0.8c-0.3,0.4-0.5,0.8-0.7,1.3C50.9,38.3,50.8,38.9,50.8,39.4z"/>
	<path class="st0" d="M75.3,46h-3.3v-1.2c-1,0.9-2.4,1.5-3.8,1.5c-0.7,0-1.3-0.1-1.9-0.4c-1.1-0.4-2-1.3-2.4-2.5
		c-0.2-0.6-0.4-1.2-0.4-1.9v-8.6h3.3V41c0,0.7,0.2,1.2,0.7,1.7s1,0.7,1.7,0.7c1.1-0.1,2.1-0.6,2.8-1.4v-9.1h3.3L75.3,46L75.3,46z"/>
</g>
</svg>
